<svg xmlns="http://www.w3.org/2000/svg" x="0px" y="0px"
width="100" height="100"
viewBox="0 0 100 100"
style=" fill:#000000;"><circle cx="52" cy="52" r="44" opacity=".35"></circle><circle cx="50" cy="50" r="44" fill="#f2f2f2"></circle><path fill="#2785bd" d="M87.5,50c0,20.709-16.791,37.5-37.5,37.5S12.5,70.709,12.5,50S29.291,12.5,50,12.5 S87.5,29.291,87.5,50z"></path><path fill="#40396e" d="M50,89c-21.505,0-39-17.495-39-39s17.495-39,39-39s39,17.495,39,39S71.505,89,50,89z M50,14 c-19.851,0-36,16.149-36,36s16.149,36,36,36s36-16.149,36-36S69.851,14,50,14z"></path><path fill="#f2f2f2" d="M58,62H33.833C31.164,62,29,59.698,29,56.857V38h24.167C55.836,38,58,40.302,58,43.143V62z"></path><polygon fill="#f2f2f2" points="71,62.113 61,55.191 61,44.809 71,37.887"></polygon></svg>